<?xml version="1.0" standalone="no"?>
<!DOCTYPE svg PUBLIC "-//W3C//DTD SVG 20010904//EN"
 "http://www.w3.org/TR/2001/REC-SVG-20010904/DTD/svg10.dtd">
<svg version="1.0" xmlns="http://www.w3.org/2000/svg"
 width="525.000000pt" height="525.000000pt" viewBox="0 0 525.000000 525.000000"
 preserveAspectRatio="xMidYMid meet">

<g transform="translate(0.000000,525.000000) scale(0.100000,-0.100000)"
fill="#000000" stroke="none">
<path d="M115 5240 c3 -5 8 -10 11 -10 2 0 4 5 4 10 0 6 -5 10 -11 10 -5 0 -7
-4 -4 -10z"/>
<path d="M225 5240 c4 -6 11 -8 16 -5 14 9 11 15 -7 15 -8 0 -12 -5 -9 -10z"/>
<path d="M4207 5242 c8 -5 9 -13 3 -22 -5 -8 -4 -22 2 -33 5 -11 7 -33 4 -49
-3 -16 -2 -27 3 -24 12 8 8 -27 -4 -36 -7 -5 -7 -8 0 -8 6 0 10 -42 10 -105 0
-58 4 -105 9 -105 5 0 3 -7 -4 -15 -7 -8 -8 -15 -4 -15 5 0 10 -82 12 -182 1
-101 4 -299 6 -440 2 -142 0 -258 -4 -258 -4 0 -5 -11 -2 -25 2 -14 9 -25 16
-25 6 0 4 -5 -4 -10 -8 -5 -10 -10 -4 -10 11 0 13 -164 2 -176 -4 -3 -2 -18 3
-32 7 -18 7 -28 0 -30 -6 -2 -9 -8 -5 -13 10 -17 13 -69 4 -69 -16 0 -62 93
-49 100 7 5 4 13 -11 23 -26 18 -60 79 -60 109 0 13 -18 43 -40 68 -38 42 -44
54 -41 73 1 4 -15 24 -34 44 -19 20 -35 40 -35 45 0 5 -9 7 -19 3 -11 -3 -22
-2 -25 3 -3 6 4 12 17 16 20 5 19 8 -20 32 -43 25 -60 44 -23 24 25 -13 25 -9
1 19 -12 14 -25 19 -37 15 -14 -4 -16 -4 -5 4 11 8 10 12 -8 21 -12 7 -19 17
-15 23 4 7 9 6 14 -2 4 -7 12 -10 18 -6 6 3 13 2 17 -4 3 -5 12 -10 18 -10 19
1 -45 49 -81 61 -18 6 -30 14 -27 19 6 9 -18 20 -48 21 -21 0 -21 1 -2 9 18 8
18 9 2 9 -10 1 -16 5 -13 10 3 5 -1 12 -10 15 -10 4 -13 13 -10 24 5 15 -2 21
-34 32 -22 7 -40 17 -40 21 0 4 -8 5 -19 2 -10 -3 -22 1 -26 8 -5 7 -4 10 1 6
6 -3 16 -1 24 4 22 15 -70 6 -98 -10 -18 -9 -22 -9 -20 1 2 8 -10 14 -34 16
-37 3 -50 16 -25 25 6 3 -3 11 -21 17 -25 9 -30 15 -20 21 10 7 9 9 -4 9 -9 0
-18 -5 -20 -12 -2 -6 -14 8 -26 33 -11 24 -21 36 -22 26 0 -10 -5 -15 -11 -12
-6 4 -8 14 -5 22 6 14 -27 52 -80 93 -18 14 -18 14 -1 -6 22 -27 22 -37 -2
-29 -11 3 -26 -1 -35 -10 -9 -9 -16 -13 -16 -9 0 4 -8 0 -17 -8 -25 -22 -51
-19 -45 4 3 12 -1 18 -12 18 -9 0 -30 14 -46 30 -20 21 -30 26 -30 15 0 -19
-4 -19 -46 1 -25 12 -41 14 -61 6 -16 -5 -38 -6 -51 -1 -12 5 -42 10 -65 11
-23 2 -48 10 -55 18 -8 8 -11 9 -7 3 4 -9 -5 -13 -32 -14 -26 0 -32 -3 -20 -8
30 -11 -85 -43 -127 -36 -44 9 -105 -3 -85 -16 11 -7 10 -9 -3 -9 -10 0 -18
-4 -18 -10 0 -5 8 -10 18 -11 14 0 14 -2 -3 -8 -11 -5 -30 -4 -43 0 -25 9 -58
-11 -44 -26 4 -5 -1 -5 -10 -2 -10 4 -18 3 -18 -2 0 -5 -11 -7 -25 -6 -14 2
-23 -1 -19 -6 3 -5 -2 -9 -10 -9 -9 0 -16 -5 -16 -10 0 -7 -6 -7 -20 0 -15 8
-18 8 -14 -3 3 -9 -6 -17 -28 -23 -18 -5 -38 -20 -44 -32 -6 -12 -23 -33 -37
-46 -15 -14 -27 -30 -27 -36 0 -5 -8 -10 -19 -10 -10 0 -24 -7 -31 -15 -7 -9
-20 -13 -28 -10 -10 3 -12 0 -9 -10 4 -8 2 -17 -3 -20 -6 -4 -10 1 -10 9 0 19
-26 21 -34 4 -5 -10 -7 -10 -12 0 -5 10 -9 10 -21 0 -8 -7 -25 -13 -38 -14
-12 0 -31 -4 -41 -8 -10 -5 -35 -10 -54 -12 -19 -2 -40 -5 -47 -6 -7 -1 -14
-7 -17 -15 -3 -7 -16 -13 -30 -13 -14 0 -31 -6 -38 -12 -7 -7 -20 -14 -28 -16
-8 -2 -28 -10 -43 -17 -15 -8 -35 -11 -43 -8 -13 5 -19 -8 -15 -30 1 -5 -3 -6
-9 -2 -5 3 -10 1 -10 -5 0 -6 -4 -9 -9 -6 -5 4 -21 -7 -34 -24 -14 -16 -31
-30 -37 -30 -6 0 -9 -4 -5 -10 3 -5 -6 -17 -20 -26 -14 -9 -25 -25 -25 -35 0
-17 -11 -24 -34 -20 -5 1 -6 -4 -3 -12 3 -8 -3 -21 -14 -30 -10 -9 -19 -26
-19 -37 0 -11 -4 -20 -10 -20 -5 0 -10 -6 -10 -12 -1 -7 -14 -28 -30 -47 -15
-18 -26 -40 -23 -47 3 -8 -1 -14 -10 -14 -10 0 -13 -7 -10 -20 3 -11 0 -20 -6
-20 -5 0 -8 -6 -5 -14 3 -8 -1 -25 -10 -38 -8 -13 -18 -42 -22 -65 -4 -24 -10
-43 -13 -43 -4 0 -13 -16 -20 -35 -7 -19 -17 -35 -22 -35 -5 0 -9 -9 -9 -19 0
-22 -31 -81 -42 -81 -4 0 -5 -7 -2 -15 4 -9 0 -15 -10 -15 -9 0 -16 -7 -16
-15 0 -8 -4 -15 -10 -15 -5 0 -10 -6 -10 -12 0 -18 -66 -99 -73 -91 -4 3 -5
-4 -2 -15 2 -12 0 -21 -4 -19 -16 4 -94 -77 -84 -87 4 -3 -1 -6 -10 -6 -9 0
-17 -7 -17 -16 0 -8 -5 -12 -11 -9 -6 4 -13 -2 -16 -13 -2 -11 -20 -28 -38
-38 -28 -15 -32 -21 -22 -33 10 -12 9 -14 -5 -8 -17 6 -58 -26 -58 -45 0 -4
-11 -10 -25 -14 -14 -3 -23 -10 -20 -14 3 -4 -2 -11 -11 -14 -22 -9 -26 -8
-18 6 4 6 3 8 -4 5 -5 -4 -8 -17 -5 -30 4 -18 3 -19 -6 -7 -7 10 -11 11 -11 3
0 -7 -5 -13 -10 -13 -6 0 -20 -8 -31 -18 -16 -16 -29 -18 -70 -13 -12 2 -20
45 -25 139 -3 52 -12 115 -19 140 -8 25 -12 49 -9 53 2 4 0 18 -5 32 -5 13
-12 45 -15 72 -2 26 -12 55 -20 64 -9 10 -16 27 -16 39 0 12 -4 22 -9 22 -5 0
-13 10 -17 22 -8 28 -34 48 -51 41 -7 -3 -13 0 -13 6 0 6 -9 11 -19 11 -11 0
-23 5 -26 10 -8 13 -100 13 -146 0 -37 -10 -69 -45 -69 -75 0 -9 -8 -27 -17
-42 -9 -14 -18 -35 -20 -47 -8 -46 -9 -223 -2 -248 4 -16 4 -28 -1 -28 -4 0
-2 -17 6 -37 7 -21 13 -51 14 -68 0 -16 7 -49 15 -72 17 -49 13 -65 -21 -83
l-24 -13 0 -1394 0 -1393 979 0 979 0 0 128 c-1 70 4 207 11 305 12 190 9 295
-14 421 -22 115 -21 118 27 141 23 11 46 19 50 18 4 -2 7 0 7 5 -4 22 2 42 11
37 5 -3 15 5 22 19 6 14 15 26 20 26 4 0 8 5 8 11 0 5 -5 7 -11 3 -6 -3 -4 5
5 18 9 14 13 27 10 31 -6 6 19 37 30 37 3 0 6 -7 6 -16 0 -11 5 -14 17 -10 9
4 19 2 23 -4 5 -8 12 -7 22 4 13 13 18 13 36 0 12 -8 23 -10 26 -5 4 5 0 11
-6 14 -7 3 -2 5 12 4 14 0 34 -9 46 -19 16 -14 27 -16 51 -9 21 6 35 5 42 -2
8 -8 11 -8 11 0 0 10 45 25 79 27 8 1 18 10 22 21 4 11 8 16 8 11 1 -5 8 -3
17 5 10 9 18 9 22 2 7 -11 79 -10 124 2 30 8 58 44 58 75 0 11 3 20 8 20 11 0
8 70 -3 71 -5 0 6 5 25 12 19 7 40 23 47 37 15 30 17 94 3 121 -18 32 2 21 46
-26 36 -40 46 -45 83 -45 23 0 52 -5 63 -11 15 -8 27 -8 47 2 39 21 61 41 54
52 -4 6 0 8 9 4 17 -6 38 29 38 63 0 10 6 20 13 23 7 3 0 9 -15 16 -16 6 -28
17 -28 26 0 8 -9 15 -20 15 -11 0 -20 5 -20 10 0 12 -37 50 -49 50 -5 0 -11
-9 -14 -19 -5 -21 -46 -26 -60 -6 -4 6 -9 1 -13 -12 -4 -13 -11 -23 -16 -23
-5 0 -7 8 -4 18 7 21 -8 47 -22 38 -6 -3 -8 -15 -5 -25 3 -10 -1 -22 -7 -26
-9 -5 -10 -1 -5 14 7 22 -10 30 -18 9 -2 -7 -7 -10 -11 -7 -3 3 3 15 14 27 11
12 20 24 20 28 0 13 -42 -31 -51 -54 -5 -12 -13 -22 -19 -22 -6 0 4 26 22 58
29 53 30 55 7 36 -13 -12 -37 -25 -54 -28 l-29 -7 19 21 c16 18 16 20 2 14
-10 -4 -17 -1 -17 6 0 9 -7 7 -25 -4 -30 -20 -35 -20 -35 -2 0 17 -39 13 -50
-4 -4 -6 -11 -10 -16 -9 -14 3 -48 -13 -59 -29 -6 -7 -26 -14 -45 -15 -23 -2
-34 -7 -32 -15 1 -8 -7 -16 -18 -19 -11 -3 -20 -9 -20 -13 0 -4 -13 -7 -30 -8
-20 0 -30 4 -30 14 0 8 -8 14 -17 14 -29 0 -63 -12 -63 -21 0 -5 11 -7 25 -3
16 4 32 1 43 -8 17 -15 68 -17 94 -3 7 3 4 -1 -6 -9 -11 -9 -24 -16 -29 -16
-4 0 -6 -4 -3 -9 3 -5 -4 -11 -16 -14 -12 -4 -20 -9 -17 -12 10 -10 69 17 80
36 10 20 69 55 69 42 0 -5 4 -3 8 2 13 18 53 36 64 29 7 -5 9 -2 5 9 -4 11 -2
14 8 11 7 -3 24 0 37 6 22 11 22 10 -2 -9 -22 -17 -23 -23 -12 -40 6 -12 12
-26 12 -33 0 -7 6 -25 14 -40 10 -20 11 -29 2 -39 -8 -9 -8 -10 1 -5 13 7 28
-28 18 -43 -3 -5 -1 -12 5 -16 5 -3 10 -15 10 -25 0 -10 7 -26 16 -34 14 -14
10 -15 -37 -11 -28 2 -60 7 -70 10 -17 6 -24 -3 -20 -27 0 -4 -16 2 -37 13
-20 12 -29 14 -19 6 17 -14 16 -15 -17 -12 -24 2 -36 -1 -40 -12 -4 -8 -13
-13 -21 -10 -9 4 -12 1 -8 -9 3 -10 0 -12 -10 -8 -17 6 -32 -12 -17 -21 6 -4
8 -11 5 -16 -4 -5 -14 -2 -23 8 -12 12 -13 18 -4 21 6 2 12 13 12 25 -1 20 -2
20 -18 -5 -9 -16 -20 -28 -25 -28 -4 0 -5 6 0 12 4 7 8 22 8 33 0 14 10 22 38
28 48 12 48 24 0 19 l-38 -3 28 25 c27 25 39 65 15 49 -22 -13 -41 -12 -53 4
-9 12 -13 8 -23 -25 -13 -41 -30 -56 -51 -42 -10 6 -10 12 0 29 8 11 19 21 26
21 7 0 13 5 13 10 0 7 -6 7 -19 0 -27 -14 -30 -13 -28 8 1 13 8 17 27 14 16
-2 32 3 43 16 18 20 18 20 -29 16 -26 -3 -50 -7 -54 -9 -4 -2 -7 2 -8 10 -1 8
-3 22 -4 30 -1 8 -7 15 -14 15 -7 0 -16 5 -20 11 -5 8 1 10 19 7 18 -4 24 -1
20 9 -3 7 1 13 8 13 10 0 10 3 1 12 -19 19 -14 30 9 23 18 -6 20 -5 10 14 -7
12 -8 21 -2 21 5 0 11 -6 14 -12 3 -10 8 -10 18 1 12 12 12 13 -1 7 -8 -4 -5
1 7 12 25 22 30 37 10 29 -44 -16 -62 -19 -50 -7 19 21 5 37 -30 33 l-32 -3
30 11 c17 7 31 13 33 14 6 5 -11 35 -20 35 -5 0 -22 9 -36 20 -19 15 -34 19
-55 14 -21 -4 -27 -3 -23 5 4 6 11 9 16 6 5 -3 11 -1 14 4 9 14 -26 23 -36 9
-6 -10 -10 -10 -17 1 -11 17 -6 52 9 61 7 5 6 11 -5 20 -12 10 -15 10 -15 -3
0 -26 -28 -41 -53 -29 l-22 11 24 0 c24 1 24 1 5 16 -18 14 -18 14 4 15 14 0
21 4 17 11 -4 5 -17 9 -28 8 -36 -2 -48 1 -43 10 3 5 16 7 29 4 17 -4 19 -2 7
6 -8 5 -11 13 -7 17 4 4 16 -1 28 -12 20 -18 21 -18 35 0 12 18 16 18 41 5 16
-8 34 -20 41 -26 10 -10 16 -10 26 0 8 6 11 18 9 24 -4 11 6 16 27 15 3 0 6
11 6 24 1 14 -4 24 -11 24 -9 0 -11 -8 -7 -22 3 -13 1 -19 -5 -15 -6 4 -19 0
-29 -8 -40 -30 -65 -14 -60 39 2 14 -1 26 -5 26 -5 0 -9 4 -9 10 0 5 14 7 33
4 18 -3 27 -2 20 3 -6 4 -10 23 -9 41 3 37 3 37 -30 16 -14 -10 -23 -23 -20
-30 3 -8 0 -11 -9 -8 -8 3 -16 11 -18 17 -2 7 -3 4 -2 -5 2 -9 -2 -19 -9 -22
-7 -3 -7 -5 2 -5 6 -1 12 -8 12 -16 0 -8 4 -15 10 -15 5 0 7 8 3 18 -3 9 -3
14 1 11 12 -11 17 -59 6 -59 -5 0 -10 6 -10 13 0 6 -5 4 -11 -5 -7 -12 -22
-18 -49 -18 -22 0 -40 -4 -40 -10 0 -5 -15 -10 -32 -9 l-33 1 28 11 c15 6 27
16 27 23 0 7 10 20 22 28 12 9 19 18 15 22 -3 3 -13 -1 -22 -10 -9 -9 -21 -16
-26 -16 -5 0 7 17 28 38 21 20 41 36 45 35 4 -2 5 4 1 13 -3 9 0 20 8 26 11 8
11 9 -3 5 -11 -4 -18 2 -23 21 -4 15 -9 22 -12 15 -2 -7 -12 -9 -21 -6 -9 3
-5 -4 10 -16 26 -21 29 -53 5 -48 -6 1 -12 -5 -12 -13 0 -8 -6 -14 -13 -12 -7
1 -17 -9 -22 -22 -5 -13 -14 -27 -20 -31 -9 -6 -9 -10 1 -16 31 -19 -3 -19
-57 1 -68 24 -67 23 -58 8 4 -7 3 -8 -4 -4 -6 4 -9 13 -5 21 4 11 1 13 -11 9
-21 -8 -24 -24 -22 -144 1 -58 0 -109 -3 -115 -9 -16 -8 -46 1 -51 4 -3 8 0 8
7 0 10 3 10 12 1 9 -9 9 -15 1 -23 -8 -8 -5 -21 13 -46 21 -31 22 -37 9 -50
-8 -8 -19 -11 -25 -8 -5 3 -10 1 -10 -6 0 -7 -13 -10 -35 -7 -19 2 -36 -1 -39
-7 -2 -6 -8 -6 -17 3 -11 10 -11 18 0 50 8 20 20 45 28 54 14 16 18 74 9 141
-2 15 1 27 7 27 5 0 4 7 -3 15 -7 9 -14 36 -16 62 -2 25 -6 49 -10 52 -4 5 1
-137 7 -177 1 -4 1 -30 0 -59 -1 -45 -6 -56 -41 -94 -22 -23 -49 -53 -60 -66
-12 -14 -29 -23 -38 -21 -28 5 -186 233 -312 448 -123 209 -228 297 -435 363
-306 97 -480 172 -469 201 3 7 13 13 22 12 22 -1 92 26 92 36 0 4 14 5 30 3
17 -2 30 0 30 5 0 5 7 6 17 3 11 -4 14 -3 9 5 -4 7 -1 12 8 12 9 0 16 5 16 11
0 6 7 8 16 5 8 -3 12 -2 9 4 -3 6 0 10 8 10 8 0 26 9 41 21 14 11 31 17 38 13
8 -5 9 -2 5 9 -5 14 -3 15 13 4 11 -6 20 -15 20 -20 0 -4 -5 -5 -10 -2 -6 3
-10 2 -10 -4 0 -5 6 -12 13 -14 7 -4 8 -6 1 -6 -6 -1 -17 6 -24 14 -18 21 -27
19 -32 -10 -4 -21 -3 -23 13 -14 13 7 20 5 27 -7 8 -15 12 -15 38 2 l29 18
-25 -25 c-17 -17 -29 -22 -38 -16 -9 7 -12 3 -12 -14 0 -20 -2 -21 -11 -9 -9
13 -10 13 -6 0 6 -22 72 -22 93 1 9 10 13 22 10 27 -7 12 22 25 36 16 5 -3 12
3 15 15 3 13 14 21 27 21 21 1 21 1 2 15 -22 17 -40 20 -31 6 6 -11 -13 -26
-22 -17 -9 9 48 66 59 60 5 -3 6 7 2 23 l-7 28 22 -25 c13 -14 20 -19 16 -12
-8 16 4 54 15 47 5 -3 11 -1 15 5 4 6 11 8 16 4 5 -3 9 -2 8 3 -4 22 2 25 16
7 14 -18 14 -18 10 4 -3 17 1 22 17 22 17 0 18 2 8 15 -11 13 -10 14 5 9 12
-5 27 4 51 30 19 20 38 34 44 31 5 -3 23 9 40 28 23 27 35 33 57 30 17 -3 23
-1 16 4 -7 5 -9 14 -3 23 7 11 15 12 47 2 37 -11 38 -11 15 6 -13 10 -20 21
-16 25 11 11 46 8 39 -3 -3 -5 0 -7 9 -4 8 3 12 12 9 20 -3 8 -2 14 3 13 18
-4 46 15 55 37 5 14 17 24 29 24 12 0 20 7 20 16 0 21 47 77 55 65 3 -6 -1
-13 -8 -18 -21 -12 -41 -53 -26 -53 6 0 13 9 16 20 3 11 11 20 18 20 7 0 15 9
18 21 3 12 10 18 16 15 5 -4 19 4 30 16 22 23 26 34 14 41 -5 2 -2 2 5 1 6 -2
19 -1 27 2 13 5 13 9 3 21 -10 13 -8 14 12 11 25 -3 60 18 60 36 0 5 7 18 17
28 9 11 11 18 5 18 -19 0 -14 18 8 25 24 8 130 108 130 124 0 6 5 11 11 11 5
0 8 -4 5 -9 -4 -5 10 -5 31 0 40 9 58 4 27 -8 -25 -9 -64 -45 -59 -53 6 -10
-45 -53 -53 -45 -4 4 2 13 12 21 11 8 16 14 10 14 -5 0 -16 -6 -25 -13 -15
-11 -15 -15 -2 -32 14 -20 14 -20 31 0 9 12 25 27 35 34 15 12 17 12 11 -5 -4
-10 -12 -26 -18 -34 -9 -12 -6 -12 14 1 14 9 25 21 25 26 0 5 8 17 18 27 9 10
17 20 17 24 0 3 -5 1 -12 -6 -7 -7 -23 -12 -37 -12 -25 1 -24 2 9 20 29 15 37
16 45 5 9 -11 14 -11 29 1 11 7 23 11 28 8 5 -3 8 2 6 12 -2 13 4 18 22 19 14
1 38 5 53 9 24 6 27 11 24 35 -4 24 -2 28 14 24 10 -3 16 -9 13 -14 -3 -5 4
-9 16 -9 20 0 19 2 -7 26 -15 15 -21 25 -13 22 8 -3 30 1 48 8 17 7 32 10 32
7 0 -4 6 1 13 12 9 11 19 15 27 10 8 -5 11 -3 8 6 -3 8 -11 15 -19 15 -8 1
-20 2 -26 3 -30 3 -10 21 25 22 24 1 29 3 14 6 -18 3 -21 8 -12 17 8 10 4 12
-17 10 l-28 -4 28 11 c31 12 71 4 48 -10 -9 -6 -7 -10 9 -14 17 -4 20 -2 16
10 -5 11 -2 14 10 9 8 -3 23 -6 32 -6 13 -1 11 -4 -6 -13 -12 -7 -19 -17 -15
-21 4 -4 4 -7 -2 -6 -21 5 -45 0 -45 -9 0 -4 12 -6 26 -3 15 3 29 -1 34 -8 5
-8 15 -10 26 -5 18 7 18 8 -1 15 -15 6 -6 9 29 9 46 1 48 2 30 16 -17 13 -15
13 19 4 20 -5 42 -7 47 -4 6 3 10 -1 10 -10 0 -9 -18 -24 -44 -35 -59 -25 -84
-64 -42 -68 15 -1 17 1 7 7 -11 7 -10 11 5 20 11 6 15 11 9 11 -19 0 47 30 67
30 16 0 19 5 15 20 -4 17 -2 20 14 15 10 -4 19 -2 19 4 0 6 7 8 15 5 8 -4 12
-10 9 -15 -3 -5 6 -9 20 -9 14 0 28 5 31 10 8 13 46 13 65 -1 11 -7 6 -9 -19
-5 -41 6 -63 -4 -35 -15 12 -6 7 -7 -16 -4 -41 6 -65 -6 -57 -29 5 -12 21 -16
67 -16 33 0 60 -4 60 -10 0 -5 12 -10 28 -9 l27 1 -25 7 c-23 6 -23 8 -6 14
22 9 39 -10 31 -32 -8 -21 68 -8 127 23 65 34 73 33 17 -2 -79 -49 -145 -65
-155 -37 -4 8 -17 15 -30 15 -13 0 -24 4 -24 9 0 9 -48 6 -58 -3 -3 -3 5 -6
17 -6 17 0 21 -4 17 -15 -3 -9 0 -15 9 -15 20 0 19 -17 -2 -29 -16 -9 -15 -10
5 -11 13 0 20 4 17 10 -3 6 1 10 10 10 9 0 14 -4 11 -9 -8 -13 18 -21 35 -10
11 7 10 9 -5 9 -13 0 -16 3 -10 9 13 13 104 18 103 6 0 -5 -7 -9 -14 -9 -8 1
-12 -3 -8 -9 4 -6 -2 -8 -15 -5 -12 4 -25 2 -28 -3 -3 -5 0 -9 7 -9 7 0 5 -8
-6 -20 -22 -24 -17 -25 21 -5 16 8 43 15 59 14 17 0 24 -3 18 -6 -7 -2 -13 -9
-13 -14 0 -6 8 -5 20 1 11 6 18 15 16 19 -4 7 26 8 43 2 2 0 -7 -10 -20 -22
l-24 -20 25 7 c14 3 32 11 40 18 8 6 7 1 -4 -11 -10 -13 -23 -20 -27 -17 -5 3
-9 1 -9 -5 0 -5 -7 -11 -17 -13 -14 -3 -14 -5 2 -18 11 -9 16 -10 11 -2 -5 8
0 12 13 12 12 0 21 5 21 10 0 6 13 10 28 10 15 0 33 5 39 11 6 6 21 8 33 4 18
-6 19 -9 8 -22 -11 -13 -11 -17 0 -21 10 -3 10 -7 1 -18 -8 -10 -8 -14 0 -14
6 0 11 -9 11 -20 0 -11 -5 -20 -10 -20 -6 0 -9 3 -8 8 7 20 -13 14 -37 -12
-26 -28 -26 -29 -3 -22 13 4 32 8 42 7 22 0 59 37 50 50 -3 5 2 6 11 3 13 -5
13 -9 3 -23 -7 -9 -20 -21 -28 -28 -11 -8 -12 -15 -4 -22 7 -8 17 1 34 31 13
24 30 49 37 56 7 7 13 21 14 30 1 9 5 1 9 -18 5 -21 5 -39 -1 -45 -7 -7 -8 -4
-3 9 5 14 4 17 -5 12 -7 -5 -10 -18 -7 -31 3 -13 2 -27 -4 -30 -5 -3 -10 0
-11 7 -1 7 -4 2 -8 -12 -4 -14 -17 -29 -29 -35 -12 -5 -22 -13 -22 -17 0 -16
22 -7 47 18 17 17 32 24 46 20 15 -4 17 -2 8 7 -14 14 -14 30 1 21 7 -4 8 -3
4 4 -4 7 -3 19 2 28 17 30 23 -55 7 -87 -22 -42 -18 -59 6 -22 12 20 26 30 35
26 17 -6 19 -29 3 -39 -7 -4 -8 -9 -1 -13 6 -3 13 -28 15 -54 5 -43 3 -49 -16
-57 -12 -5 -18 -9 -13 -9 6 -1 -7 -17 -28 -36 -21 -19 -34 -35 -28 -35 6 0 17
7 26 15 8 8 20 15 26 15 6 0 8 5 4 11 -4 7 -1 10 7 7 9 -3 22 11 35 39 12 25
25 40 28 34 4 -6 -1 -23 -11 -38 -10 -15 -13 -24 -6 -20 6 4 14 1 16 -5 4 -8
6 -7 7 5 3 18 6 32 10 45 2 4 4 12 5 17 6 40 18 75 25 75 13 0 20 -28 7 -33
-13 -4 -18 -59 -6 -67 11 -7 -13 -90 -26 -90 -6 0 -21 -23 -32 -50 -23 -54
-13 -60 12 -7 8 18 24 38 35 45 19 12 20 11 14 -15 -10 -48 -14 -54 -25 -47
-8 4 -9 0 -4 -15 4 -15 2 -21 -9 -21 -8 0 -17 -4 -20 -9 -4 -5 4 -7 16 -3 20
5 21 4 10 -11 -12 -14 -11 -20 2 -39 9 -12 16 -17 16 -11 0 6 9 13 19 16 14 3
21 -2 25 -17 6 -20 7 -20 23 7 10 15 25 27 34 27 9 0 22 7 29 15 18 22 21 14
10 -24 -7 -26 -7 -31 4 -22 7 6 16 8 19 4 4 -3 9 2 13 11 3 9 10 14 14 11 4
-3 11 5 14 18 6 21 7 21 17 3 8 -14 8 -20 -1 -26 -8 -5 -7 -9 6 -14 9 -3 17
-5 18 -4 1 2 8 15 15 30 10 19 20 26 40 25 19 -2 25 2 23 15 -1 9 2 19 8 23 5
3 10 15 10 27 0 16 3 18 14 9 15 -12 11 -45 -8 -71 -10 -13 -9 -13 7 -1 15 12
17 11 17 -10 1 -21 2 -22 11 -6 5 9 7 22 4 27 -3 6 -1 10 4 10 6 0 12 -8 12
-17 4 -46 7 -61 18 -79 11 -17 12 -16 6 9 -3 15 -1 27 5 27 5 0 10 15 11 33 0
26 2 28 8 12 5 -11 7 -23 4 -28 -9 -15 9 -48 23 -43 16 6 19 -10 4 -19 -6 -4
-5 -13 2 -25 9 -13 16 -16 24 -9 9 7 14 -1 19 -32 5 -29 10 -38 16 -28 6 9 9
0 9 -28 0 -23 5 -45 10 -48 7 -4 8 3 4 21 -5 19 -4 25 5 20 15 -10 14 -65 -3
-98 -8 -15 -11 -30 -6 -33 5 -3 7 -12 3 -20 -3 -8 0 -15 6 -15 6 0 11 12 12
28 0 15 3 21 6 14 2 -6 9 -10 14 -6 5 3 9 0 9 -5 0 -6 -4 -11 -9 -11 -9 0 -20
-67 -12 -75 2 -3 11 1 19 7 11 10 16 8 24 -6 5 -9 23 -33 40 -52 16 -19 25
-34 20 -34 -9 0 -35 30 -69 79 -2 2 -6 1 -9 -2 -4 -4 -1 -13 6 -22 11 -13 10
-14 -4 -9 -16 6 -17 4 -20 -59 -1 -9 -15 -30 -31 -46 -40 -39 -55 -58 -55 -71
0 -22 18 -9 31 23 7 17 26 43 41 55 16 13 26 27 24 31 -3 4 -1 13 5 21 7 12 9
9 9 -10 0 -20 2 -22 10 -10 8 11 9 8 4 -11 -3 -15 -1 -30 5 -34 6 -3 9 -11 6
-16 -4 -5 -1 -9 5 -9 7 0 10 6 7 14 -3 8 1 17 9 20 18 7 19 -35 2 -53 -11 -10
-9 -11 7 -5 11 4 17 3 13 -1 -5 -5 2 -13 14 -19 14 -7 27 -28 35 -55 7 -25 18
-48 25 -52 9 -6 7 -13 -7 -28 -10 -12 -15 -24 -12 -28 4 -3 7 -1 7 5 0 7 9 12
19 12 13 0 18 -5 15 -18 -3 -9 -1 -28 5 -42 9 -22 10 -23 12 -5 1 11 1 26 0
32 -1 7 3 13 9 13 5 0 10 -6 10 -12 0 -9 3 -8 10 2 14 23 33 -35 20 -61 -6
-10 -9 -19 -6 -19 3 0 1 -13 -4 -28 -4 -16 -4 -36 2 -45 5 -10 6 -22 2 -29
-10 -15 -9 -71 1 -87 4 -8 3 -16 -4 -20 -7 -5 -8 -28 -3 -74 5 -37 6 -67 3
-67 -3 0 -6 -95 -6 -210 0 -133 -4 -210 -10 -210 -5 0 -4 -4 4 -9 9 -6 10 -11
2 -15 -6 -4 -7 -15 -2 -29 5 -13 7 -36 5 -53 -8 -73 -12 -266 -5 -291 4 -16
13 -28 21 -28 7 0 15 -6 18 -12 2 -7 -3 -13 -12 -13 -29 0 -28 14 -42 -440 -3
-118 -7 -287 -8 -375 l-1 -160 523 -3 522 -2 0 2625 0 2625 -527 0 c-291 0
-523 -4 -516 -8z m-1233 -637 c3 -8 1 -15 -4 -15 -6 0 -10 7 -10 15 0 8 2 15
4 15 2 0 6 -7 10 -15z m39 -79 c9 -3 17 -10 17 -16 0 -6 -4 -8 -10 -5 -5 3
-10 0 -10 -7 -1 -9 -4 -9 -13 3 -7 8 -27 24 -44 34 -46 27 -41 40 5 16 20 -11
45 -22 55 -25z m295 -9 c5 -24 -15 -21 -21 4 -3 13 -1 19 6 16 7 -2 13 -11 15
-20z m-257 -54 c13 -16 12 -17 -3 -4 -17 13 -22 21 -14 21 2 0 10 -8 17 -17z
m-41 -18 c0 4 8 1 18 -8 10 -10 22 -14 27 -10 4 5 5 3 1 -4 -10 -17 -86 19
-86 41 0 5 9 1 20 -9 11 -10 20 -14 20 -10z m-614 0 c16 -8 22 -15 13 -15 -8
0 -24 7 -35 15 -25 19 -14 19 22 0z m184 0 c16 -19 10 -19 -26 0 -25 13 -26
15 -8 15 12 0 27 -7 34 -15z m140 -27 c0 -5 -3 -8 -7 -8 -10 0 -43 32 -43 42
0 11 49 -24 50 -34z m-196 13 c4 -5 -3 -7 -14 -4 -23 6 -26 13 -6 13 8 0 17
-4 20 -9z m221 -1 c3 -5 1 -10 -4 -10 -6 0 -11 5 -11 10 0 6 2 10 4 10 3 0 8
-4 11 -10z m86 -7 c13 -17 13 -17 -6 -3 -11 8 -22 16 -24 17 -2 2 0 3 6 3 6 0
17 -8 24 -17z m-76 -33 c3 -6 -1 -7 -9 -4 -18 7 -21 14 -7 14 6 0 13 -4 16
-10z m-451 -26 c9 -3 16 -15 16 -25 0 -10 5 -19 12 -19 6 0 9 -3 5 -6 -3 -3
-23 2 -44 12 -48 22 -46 21 -38 33 7 12 26 14 49 5z m73 -10 c-3 -3 -12 -4
-19 -1 -8 3 -5 6 6 6 11 1 17 -2 13 -5z m1263 -25 c0 -7 -11 -9 -27 -6 -15 3
-36 1 -46 -4 -18 -10 -41 -3 -33 10 8 13 106 13 106 0z m-1410 -25 c0 -17 -22
-14 -28 4 -2 7 3 12 12 12 9 0 16 -7 16 -16z m-100 -9 c0 -9 -9 -15 -22 -14
-17 1 -19 2 -5 6 9 2 17 9 17 14 0 5 2 9 5 9 3 0 5 -7 5 -15z m1526 -3 c-10
-2 -22 0 -28 6 -6 6 0 7 19 4 21 -5 23 -7 9 -10z m29 -22 c3 -5 1 -10 -4 -10
-6 0 -11 5 -11 10 0 6 2 10 4 10 3 0 8 -4 11 -10z m-1598 -16 c-3 -3 -12 -4
-19 -1 -8 3 -5 6 6 6 11 1 17 -2 13 -5z m40 -20 c-3 -3 -12 -4 -19 -1 -8 3 -5
6 6 6 11 1 17 -2 13 -5z m-32 -44 c3 -5 1 -10 -4 -10 -6 0 -11 5 -11 10 0 6 2
10 4 10 3 0 8 -4 11 -10z m42 -6 c-3 -3 -12 -4 -19 -1 -8 3 -5 6 6 6 11 1 17
-2 13 -5z m1203 -50 c0 -9 -5 -12 -12 -8 -8 5 -9 2 -5 -9 3 -10 2 -17 -4 -17
-6 0 -6 -8 1 -22 9 -19 7 -18 -14 5 -21 23 -24 31 -13 41 10 10 26 19 45 25 1
1 2 -6 2 -15z m-1300 -4 c0 -5 -2 -10 -4 -10 -3 0 -8 5 -11 10 -3 6 -1 10 4
10 6 0 11 -4 11 -10z m1839 -46 c14 -12 -19 -1 -35 12 -18 14 -18 14 6 3 14
-6 27 -13 29 -15z m-1792 10 c-3 -3 -12 -4 -19 -1 -8 3 -5 6 6 6 11 1 17 -2
13 -5z m-9 -45 c3 -11 2 -11 -6 -1 -5 7 -15 10 -24 7 -9 -4 -15 0 -15 9 0 18
39 5 45 -15z m1225 -2 c4 3 7 2 8 -3 6 -82 6 -111 0 -119 -9 -12 -44 -125 -44
-140 0 -5 3 -49 7 -97 4 -50 3 -89 -3 -92 -12 -8 -21 55 -11 75 5 8 5 21 1 28
-10 16 -18 -2 -17 -38 1 -28 -41 -81 -63 -81 -10 0 -8 7 9 25 13 14 19 25 14
25 -5 0 -1 5 10 11 14 9 15 13 6 19 -10 6 -8 17 8 49 28 53 28 71 2 64 -11 -3
-20 -11 -20 -18 0 -7 -8 -19 -17 -26 -15 -12 -16 -12 -10 4 4 10 7 27 7 36 0
13 6 17 23 14 18 -3 25 3 40 39 9 24 17 51 17 60 0 9 6 18 12 20 10 4 10 10 0
32 -7 15 -8 24 -2 21 5 -3 10 -4 10 -1 0 2 3 13 7 23 6 16 5 16 -10 4 -14 -11
-17 -11 -18 0 0 8 -4 4 -9 -8 -5 -13 -13 -23 -18 -23 -5 0 -8 10 -7 23 1 12 3
22 4 22 2 0 4 8 6 18 6 30 26 49 40 37 6 -5 15 -7 18 -3z m-73 -17 c0 -5 -8
-10 -17 -10 -15 0 -16 2 -3 10 19 12 20 12 20 0z m-673 -26 c-3 -3 -12 -4 -19
-1 -8 3 -5 6 6 6 11 1 17 -2 13 -5z m1405 -16 c-12 -12 -35 -1 -27 12 3 5 13
6 21 3 10 -4 12 -9 6 -15z m33 -18 c3 -5 1 -10 -4 -10 -6 0 -11 5 -11 10 0 6
2 10 4 10 3 0 8 -4 11 -10z m-2065 -40 c0 -5 -4 -10 -9 -10 -6 0 -13 5 -16 10
-3 6 1 10 9 10 9 0 16 -4 16 -10z m1420 -11 c0 -11 -4 -18 -10 -14 -5 3 -7 12
-3 20 7 21 13 19 13 -6z m-1090 1 c0 -5 -2 -10 -4 -10 -3 0 -8 5 -11 10 -3 6
-1 10 4 10 6 0 11 -4 11 -10z m296 2 c-3 -3 -32 -6 -64 -7 -34 -2 -49 1 -37 5
24 9 109 11 101 2z m144 -18 c0 -2 -9 -4 -20 -4 -11 0 -20 4 -20 9 0 5 9 7 20
4 11 -3 20 -7 20 -9z m475 -4 c-3 -5 -11 -10 -16 -10 -6 0 -7 5 -4 10 3 6 11
10 16 10 6 0 7 -4 4 -10z m55 0 c0 -5 -2 -10 -4 -10 -3 0 -8 5 -11 10 -3 6 -1
10 4 10 6 0 11 -4 11 -10z m-972 -7 c-10 -2 -18 -9 -18 -15 0 -5 7 -7 16 -4 8
3 12 2 9 -3 -3 -5 4 -12 15 -16 18 -6 18 -8 5 -21 -16 -16 -59 -28 -50 -14 3
5 -3 11 -12 13 -14 4 -13 5 5 6 12 0 22 6 22 12 0 6 -9 9 -20 6 -14 -4 -20 0
-20 11 0 14 -2 15 -9 2 -6 -8 -8 -17 -5 -21 2 -4 -2 -10 -8 -12 -10 -4 -10 -8
1 -15 8 -6 9 -12 3 -16 -5 -3 -13 2 -16 11 -6 14 -8 14 -20 -3 -8 -10 -13 -21
-11 -24 2 -3 -8 -5 -21 -5 -13 0 -26 6 -29 13 -2 7 1 12 8 11 25 -3 50 1 43 8
-3 4 4 13 16 20 18 9 19 12 6 13 -9 0 -19 4 -22 9 -4 5 4 7 16 3 16 -4 20 -2
16 10 -5 11 1 14 23 13 17 -1 32 2 35 7 3 4 13 7 22 7 15 -1 15 -2 0 -6z m860
-29 c-7 -16 -19 -33 -28 -39 -16 -10 -20 -11 -47 -15 -11 -1 -13 -3 -5 -7 14
-5 16 -23 3 -23 -5 0 -12 7 -15 15 -4 10 3 19 18 25 14 5 27 18 31 30 3 11 10
18 15 15 5 -3 15 3 22 14 17 28 21 19 6 -15z m-93 6 c-3 -5 -11 -10 -16 -10
-6 0 -7 5 -4 10 3 6 11 10 16 10 6 0 7 -4 4 -10z m-1135 -4 c0 -2 -12 -11 -26
-21 -25 -16 -25 -16 -14 4 9 17 40 30 40 17z m120 -12 c0 -2 -9 -4 -21 -4 -11
0 -18 4 -14 10 5 8 35 3 35 -6z m940 6 c-8 -5 -19 -10 -25 -10 -5 0 -3 5 5 10
8 5 20 10 25 10 6 0 3 -5 -5 -10z m281 -12 c-10 -27 -34 -38 -25 -11 4 13 0
12 -16 -7 -20 -22 -22 -22 -19 -5 2 11 15 25 29 32 35 18 41 16 31 -9z m105 9
c8 3 14 -1 15 -8 0 -8 2 -25 5 -39 4 -24 3 -24 -11 -6 -8 11 -15 24 -15 29 0
4 -9 5 -20 2 -14 -4 -20 -2 -20 8 0 19 12 29 23 18 5 -5 16 -7 23 -4z m-1276
-17 c-8 -5 -22 -10 -30 -10 -13 0 -13 1 0 10 8 5 22 10 30 10 13 0 13 -1 0
-10z m794 1 c-9 -10 -44 -11 -44 -1 0 5 11 9 25 8 13 -1 22 -4 19 -7z m-844
-21 c0 -5 -4 -10 -10 -10 -5 0 -10 5 -10 10 0 6 5 10 10 10 6 0 10 -4 10 -10z
m54 -6 c23 -9 20 -41 -5 -49 -11 -4 -23 -4 -27 -1 -3 4 4 9 16 12 l21 6 -22
19 c-22 18 -13 25 17 13z m1252 -22 c1 -9 5 -25 9 -34 4 -10 3 -18 -3 -18 -10
0 -22 33 -22 64 0 23 13 13 16 -12z m-1321 8 c4 -6 -7 -10 -25 -10 -18 0 -29
4 -25 10 3 6 15 10 25 10 10 0 22 -4 25 -10z m905 2 c0 -4 -9 -13 -19 -19 -15
-10 -22 -9 -31 2 -9 11 -7 12 9 8 12 -3 21 -1 21 6 0 6 5 11 10 11 6 0 10 -3
10 -8z m-895 -35 c-25 -17 -85 -30 -85 -18 0 12 27 21 44 15 8 -3 17 -1 21 5
3 6 14 11 23 11 14 0 13 -2 -3 -13z m144 -14 c-8 -9 -14 -10 -19 -3 -4 6 -15
8 -26 4 -19 -7 -19 -6 0 8 25 20 62 12 45 -9z m-74 -3 c-3 -5 -14 -10 -23 -10
-15 0 -15 2 -2 10 20 13 33 13 25 0z m690 0 c3 -6 -1 -7 -9 -4 -18 7 -21 14
-7 14 6 0 13 -4 16 -10z m215 0 c0 -5 -10 -15 -22 -21 l-23 -12 20 21 c23 24
25 25 25 12z m-810 -4 c0 -3 -4 -8 -10 -11 -5 -3 -10 -1 -10 4 0 6 5 11 10 11
6 0 10 -2 10 -4z m910 -6 c0 -5 -4 -10 -10 -10 -5 0 -10 -7 -10 -16 0 -12 -4
-14 -12 -6 -8 5 -22 6 -33 1 -34 -13 -49 -11 -35 5 6 9 23 13 40 11 18 -2 30
2 34 11 6 16 26 19 26 4z m-1170 -4 c0 -3 -4 -8 -10 -11 -5 -3 -10 -1 -10 4 0
6 5 11 10 11 6 0 10 -2 10 -4z m60 -6 c12 -8 9 -10 -13 -10 -16 0 -26 4 -22
10 8 12 16 12 35 0z m57 4 c-3 -3 -12 -4 -19 -1 -8 3 -5 6 6 6 11 1 17 -2 13
-5z m45 -26 c-9 -9 -15 -9 -24 0 -9 9 -7 12 12 12 19 0 21 -3 12 -12z m1988
-3 c11 -13 10 -14 -4 -9 -9 3 -16 10 -16 15 0 13 6 11 20 -6z m-2157 -6 c-8
-8 -16 -8 -30 0 -16 9 -14 10 12 11 21 0 26 -3 18 -11z m1257 -29 c-8 -5 -17
-7 -19 -4 -3 3 1 9 9 14 8 5 17 7 19 4 3 -3 -1 -9 -9 -14z m928 -15 c-3 -3 -9
2 -12 12 -6 14 -5 15 5 6 7 -7 10 -15 7 -18z m-1021 -11 c-3 -3 -12 -4 -19 -1
-8 3 -5 6 6 6 11 1 17 -2 13 -5z m1053 -25 c0 -6 -4 -7 -10 -4 -5 3 -10 11
-10 16 0 6 5 7 10 4 6 -3 10 -11 10 -16z m-2340 -79 c0 -5 -4 -10 -8 -10 -5 0
-14 -12 -21 -26 -12 -27 -23 -26 -27 1 -1 8 2 13 7 10 4 -3 14 3 21 15 14 21
28 27 28 10z m2488 -28 c6 -18 -15 -14 -22 4 -4 10 -1 14 6 12 6 -2 14 -10 16
-16z m-818 -43 c0 -24 -4 -38 -10 -34 -5 3 -10 22 -10 41 0 19 5 34 10 34 6 0
10 -18 10 -41z m-55 -22 c-4 -46 -4 -47 -13 -47 -4 0 -7 20 -7 44 0 28 4 42
11 39 7 -2 10 -19 9 -36z m75 -176 c0 -5 -9 -19 -20 -32 -17 -21 -19 -21 -13
-4 10 33 33 57 33 36z m172 -41 c5 -32 -7 -42 -14 -12 -4 16 0 42 7 42 1 0 5
-13 7 -30z m-181 -27 c-8 -15 -10 -15 -11 -2 0 17 10 32 18 25 2 -3 -1 -13 -7
-23z m-2151 -3 c-24 -15 -36 -11 -14 4 10 8 21 12 24 10 2 -3 -2 -9 -10 -14z
m2251 -27 c-8 -15 -10 -15 -11 -2 0 17 10 32 18 25 2 -3 -1 -13 -7 -23z m289
-5 c0 -23 -3 -29 -11 -21 -6 6 -8 20 -4 32 9 30 15 26 15 -11z m-208 0 c-7 -7
-12 -8 -12 -2 0 6 3 14 7 17 3 4 9 5 12 2 2 -3 -1 -11 -7 -17z m-2397 -8 c-3
-5 -12 -10 -18 -10 -7 0 -6 4 3 10 19 12 23 12 15 0z m2250 -19 c-3 -6 -11
-11 -17 -11 -6 0 -6 6 2 15 14 17 26 13 15 -4z m65 3 c0 -9 -32 -33 -44 -34
-5 0 -1 9 9 20 18 20 35 26 35 14z m84 -9 c-4 -8 -8 -15 -10 -15 -2 0 -4 7 -4
15 0 8 4 15 10 15 5 0 7 -7 4 -15z m889 -192 c-7 -2 -21 -2 -30 0 -10 3 -4 5
12 5 17 0 24 -2 18 -5z m-3653 -63 c-6 -11 -12 -20 -14 -20 -2 0 -2 9 1 20 3
11 9 20 15 20 5 0 4 -9 -2 -20z m-45 -10 c3 -5 2 -10 -4 -10 -5 0 -13 5 -16
10 -3 6 -2 10 4 10 5 0 13 -4 16 -10z m60 -50 c3 -5 1 -10 -4 -10 -6 0 -11 5
-11 10 0 6 2 10 4 10 3 0 8 -4 11 -10z m-30 -69 c-9 -8 -36 -10 -30 -2 2 4 11
8 20 8 8 0 13 -3 10 -6z m3618 -2 c-8 -8 -16 -8 -30 0 -16 9 -14 10 12 11 21
0 26 -3 18 -11z m7 -70 c0 -9 -51 -22 -57 -15 -3 2 -3 8 0 13 6 9 57 11 57 2z
m-40 -39 c30 0 40 -13 19 -26 -6 -3 -16 -1 -22 5 -14 14 -30 15 -22 1 4 -6 3
-9 -2 -8 -4 2 -9 -1 -11 -7 -1 -5 12 -10 28 -11 42 -2 51 -13 10 -12 -18 1
-35 -3 -38 -9 -4 -5 -14 -13 -22 -16 -9 -3 -4 -6 13 -6 15 -1 27 4 27 9 0 6 5
10 10 10 16 0 11 -27 -6 -34 -30 -12 -55 -6 -80 19 -14 14 -29 25 -34 25 -6 0
-10 4 -10 9 0 4 8 8 18 8 35 0 42 3 42 21 0 14 2 15 10 2 8 -13 10 -12 10 3 0
9 6 17 13 18 9 0 9 2 -1 6 -6 2 -9 9 -6 15 4 7 10 4 16 -6 5 -9 22 -16 38 -16z
m-78 8 c-9 -9 -15 -9 -24 0 -9 9 -7 12 12 12 19 0 21 -3 12 -12z m-304 -72 c2
-10 -1 -23 -8 -30 -8 -8 -10 -7 -4 7 3 9 0 25 -7 34 -12 14 -12 16 1 11 8 -2
17 -13 18 -22z m209 -6 c8 -12 9 -21 3 -25 -6 -3 -10 -1 -10 6 0 6 -8 18 -17
25 -15 11 -15 13 -3 14 8 0 21 -9 27 -20z m191 -74 c-10 -7 -18 -21 -18 -30 0
-9 -5 -16 -11 -16 -5 0 -7 -4 -4 -10 10 -16 -11 -11 -25 5 -7 9 -19 14 -25 11
-7 -2 -18 0 -26 5 -11 7 -9 9 8 9 13 0 28 9 35 20 9 14 23 20 48 20 31 -1 33
-2 18 -14z m-169 -45 c27 -8 32 -8 23 1 -7 7 -12 16 -12 21 0 5 8 0 18 -12 9
-12 29 -22 45 -23 15 -1 27 -8 27 -15 0 -18 -17 -16 -100 12 -40 14 -75 25
-78 25 -2 0 20 -16 49 -36 62 -42 87 -64 74 -64 -6 0 -30 16 -53 35 -24 19
-51 37 -60 40 -10 3 -22 16 -28 29 -11 23 -11 23 25 11 20 -7 51 -17 70 -24z
m-29 -101 c0 -5 6 -7 13 -4 8 3 20 -3 28 -13 13 -16 12 -17 -3 -5 -12 10 -22
11 -37 3 -16 -9 -22 -8 -30 7 -8 14 -6 18 10 19 10 1 19 -2 19 -7z m-24 -36
c26 -27 29 -34 15 -34 -5 0 -19 14 -31 30 -26 37 -16 39 16 4z m-2186 -269
c-14 -16 -25 -21 -16 -6 4 5 0 12 -6 14 -7 3 -2 6 11 6 20 1 21 -1 11 -14z
m220 5 c0 -5 -5 -10 -11 -10 -5 0 -7 5 -4 10 3 6 8 10 11 10 2 0 4 -4 4 -10z
m-340 -20 c0 -5 -2 -10 -4 -10 -3 0 -8 5 -11 10 -3 6 -1 10 4 10 6 0 11 -4 11
-10z m40 -24 c0 -8 -7 -17 -16 -20 -13 -5 -14 -4 -6 7 7 8 9 17 5 20 -3 4 -1
7 5 7 7 0 12 -6 12 -14z m119 5 c9 -6 4 -10 -18 -13 -31 -4 -43 6 -18 15 18 8
21 8 36 -2z m-79 -66 c-11 -13 -10 -14 2 -10 9 4 18 -1 22 -11 9 -24 4 -25
-23 -5 -23 17 -22 41 1 41 6 0 6 -6 -2 -15z m110 0 c0 -8 -9 -15 -20 -15 -25
0 -26 17 -2 23 9 3 18 5 20 6 1 0 2 -6 2 -14z m2816 -16 c10 -17 -23 -46 -38
-31 -8 8 -8 15 2 27 15 18 26 19 36 4z m-2862 -5 c20 -8 21 -24 2 -24 -8 0
-16 7 -20 15 -6 17 -4 18 18 9z m-54 -24 c0 -5 -4 -10 -10 -10 -5 0 -10 5 -10
10 0 6 5 10 10 10 6 0 10 -4 10 -10z m135 0 c-3 -5 -12 -7 -20 -3 -21 7 -19
13 6 13 11 0 18 -4 14 -10z m55 -40 c0 -5 -2 -10 -4 -10 -3 0 -8 5 -11 10 -3
6 -1 10 4 10 6 0 11 -4 11 -10z m-40 -21 c0 -6 -4 -7 -10 -4 -5 3 -10 11 -10
16 0 6 5 7 10 4 6 -3 10 -11 10 -16z m75 11 c-3 -5 -10 -10 -16 -10 -5 0 -9 5
-9 10 0 6 7 10 16 10 8 0 12 -4 9 -10z m2669 -5 c3 -9 0 -15 -9 -15 -9 0 -12
6 -9 15 4 8 7 15 9 15 2 0 5 -7 9 -15z m-2584 -9 c0 -2 -7 -6 -15 -10 -8 -3
-15 -1 -15 4 0 6 7 10 15 10 8 0 15 -2 15 -4z m-24 -108 c-12 -7 -21 -7 -28 0
-6 6 0 10 18 10 23 0 24 -2 10 -10z m483 -36 c14 -12 14 -13 -3 -7 -11 3 -23
0 -28 -7 -6 -8 -7 -5 -3 10 6 21 4 23 -17 17 l-23 -6 25 20 c23 18 25 18 29 3
2 -9 11 -23 20 -30z m-169 23 c0 -8 -4 -15 -10 -15 -5 0 -7 7 -4 15 4 8 8 15
10 15 2 0 4 -7 4 -15z m-323 -47 c-3 -8 -6 -5 -6 6 -1 11 2 17 5 13 3 -3 4
-12 1 -19z m513 -8 c0 -5 -2 -10 -4 -10 -3 0 -8 5 -11 10 -3 6 -1 10 4 10 6 0
11 -4 11 -10z m15 -40 c3 -6 -1 -7 -9 -4 -18 7 -21 14 -7 14 6 0 13 -4 16 -10z
m1730 -10 c9 -15 -14 -40 -31 -33 -10 4 -11 10 -3 24 11 21 24 24 34 9z
m-1675 -13 c0 -5 7 -7 14 -4 10 4 13 1 9 -9 -6 -16 -23 -19 -23 -3 0 5 -3 8
-7 6 -5 -3 -14 1 -20 8 -10 11 -9 13 7 12 11 -1 20 -5 20 -10z m60 -12 c0 -8
0 -18 1 -22 0 -4 -5 -9 -13 -11 -10 -3 -10 -2 1 6 9 7 10 12 2 16 -14 9 -14
26 -1 26 6 0 10 -7 10 -15z m1496 -34 c-4 -6 -14 -11 -22 -11 -12 0 -13 4 -3
21 7 14 14 18 21 11 6 -6 7 -15 4 -21z m-2166 9 c8 -5 11 -10 5 -10 -5 0 -17
5 -25 10 -8 5 -10 10 -5 10 6 0 17 -5 25 -10z m743 -30 c-3 -11 -7 -20 -8 -20
-1 0 -5 9 -8 20 -3 12 0 20 8 20 8 0 11 -8 8 -20z m-704 -14 c-9 -20 -16 -23
-38 -17 -14 5 -33 6 -41 4 -13 -4 -13 -3 0 6 8 6 28 8 44 5 24 -5 28 -3 23 10
-4 10 -1 16 8 16 12 0 12 -5 4 -24z m631 14 c0 -5 -7 -7 -15 -4 -8 4 -15 8
-15 10 0 2 7 4 15 4 8 0 15 -4 15 -10z m2073 -19 c6 -25 2 -29 -27 -24 -17 4
-22 10 -19 24 7 25 39 25 46 0z m-2043 -1 c0 -5 -2 -10 -4 -10 -3 0 -8 5 -11
10 -3 6 -1 10 4 10 6 0 11 -4 11 -10z m-710 -50 c0 -5 -4 -10 -10 -10 -5 0
-10 5 -10 10 0 6 5 10 10 10 6 0 10 -4 10 -10z m-66 -9 c4 -5 -3 -7 -14 -4
-23 6 -26 13 -6 13 8 0 17 -4 20 -9z m2226 -31 c0 -5 -5 -10 -11 -10 -5 0 -7
5 -4 10 3 6 8 10 11 10 2 0 4 -4 4 -10z m-2253 -36 c-3 -3 -12 -4 -19 -1 -8 3
-5 6 6 6 11 1 17 -2 13 -5z m123 -4 c0 -5 -10 -10 -22 -9 -22 0 -22 1 -3 9 11
5 21 9 23 9 1 1 2 -3 2 -9z m91 -3 c-7 -7 -14 -8 -21 -1 -6 6 -2 10 12 11 16
2 18 -1 9 -10z m210 -71 l-22 -21 17 35 c10 20 19 29 22 21 2 -7 -5 -23 -17
-35z m-140 -29 c-8 -8 -11 -7 -11 4 0 9 3 19 7 23 4 4 9 2 11 -4 3 -7 -1 -17
-7 -23z m-326 5 c-3 -3 -11 0 -18 7 -9 10 -8 11 6 5 10 -3 15 -9 12 -12z m135
3 c-7 -9 -15 -13 -19 -10 -3 3 1 10 9 15 21 14 24 12 10 -5z m-166 -3 c2 -4 1
-14 -3 -21 -6 -9 -10 -7 -14 8 -5 20 7 29 17 13z m2176 -14 c0 -7 -4 -19 -9
-27 -11 -17 -25 3 -17 24 7 18 26 20 26 3z m235 -47 c-7 -24 -43 -28 -52 -6
-3 9 3 25 13 36 15 17 20 18 32 5 9 -8 11 -22 7 -35z m-2345 19 c0 -5 -7 -7
-15 -4 -8 4 -15 8 -15 10 0 2 7 4 15 4 8 0 15 -4 15 -10z m80 0 c11 -8 7 -9
-15 -4 -37 8 -45 14 -19 14 10 0 26 -5 34 -10z m0 -30 c0 -5 -7 -10 -16 -10
-8 0 -12 5 -9 10 3 6 10 10 16 10 5 0 9 -4 9 -10z m2952 -110 c13 -67 -43 -82
-66 -17 -12 32 8 59 38 55 14 -2 22 -13 28 -38z m-887 0 c10 -17 -4 -47 -30
-64 -23 -15 -25 -15 -35 5 -21 38 42 96 65 59z m339 -525 c-4 -8 -11 -12 -16
-9 -6 4 -5 10 3 15 19 12 19 11 13 -6z m50 -4 c3 -5 -1 -11 -9 -14 -9 -4 -12
-1 -8 9 6 16 10 17 17 5z m100 -67 c35 -34 12 -74 -42 -74 -65 0 -91 33 -55
72 20 22 76 24 97 2z m-522 -165 c-6 -41 -30 -38 -25 4 3 17 7 39 10 47 8 24
20 -17 15 -51z m-21 -66 c-8 -15 -10 -15 -11 -2 0 17 10 32 18 25 2 -3 -1 -13
-7 -23z"/>
<path d="M2260 4356 c0 -2 7 -7 16 -10 8 -3 12 -2 9 4 -6 10 -25 14 -25 6z"/>
<path d="M4364 2585 c-18 -15 -18 -15 5 -13 14 2 26 9 29 16 5 17 -10 15 -34
-3z"/>
<path d="M4405 2480 c-3 -5 1 -10 10 -10 9 0 13 5 10 10 -3 6 -8 10 -10 10 -2
0 -7 -4 -10 -10z"/>
<path d="M260 5229 c0 -5 5 -7 10 -4 6 3 10 8 10 11 0 2 -4 4 -10 4 -5 0 -10
-5 -10 -11z"/>
<path d="M124 5210 c-12 -4 -24 -16 -28 -25 -4 -11 -12 -14 -26 -10 -11 3 -27
2 -36 -3 -12 -7 -5 -9 26 -7 24 1 48 9 54 17 6 8 20 20 31 26 23 13 10 15 -21
2z"/>
<path d="M11 5201 c-8 -6 -9 -11 -3 -15 6 -3 14 -1 17 5 9 14 2 20 -14 10z"/>
<path d="M191 5174 c0 -11 3 -14 6 -6 3 7 2 16 -1 19 -3 4 -6 -2 -5 -13z"/>
<path d="M210 5166 c0 -2 7 -6 15 -10 8 -3 15 -1 15 4 0 6 -7 10 -15 10 -8 0
-15 -2 -15 -4z"/>
<path d="M52 5139 c2 -6 8 -10 13 -10 5 0 11 4 13 10 2 6 -4 11 -13 11 -9 0
-15 -5 -13 -11z"/>
<path d="M315 5130 c-3 -5 -1 -10 4 -10 6 0 11 5 11 10 0 6 -2 10 -4 10 -3 0
-8 -4 -11 -10z"/>
<path d="M62 5074 c-7 -8 -8 -14 -3 -14 10 0 25 19 20 25 -2 1 -10 -3 -17 -11z"/>
<path d="M36 5015 c-9 -26 -7 -32 5 -12 6 10 9 21 6 23 -2 3 -7 -2 -11 -11z"/>
<path d="M3145 4570 c-3 -5 -1 -10 4 -10 6 0 11 5 11 10 0 6 -2 10 -4 10 -3 0
-8 -4 -11 -10z"/>
<path d="M2490 3849 c0 -5 5 -7 10 -4 6 3 10 8 10 11 0 2 -4 4 -10 4 -5 0 -10
-5 -10 -11z"/>
<path d="M2376 3831 c-14 -5 -16 -10 -7 -15 15 -9 41 -1 41 14 0 11 -7 12 -34
1z"/>
<path d="M2428 3823 c6 -2 18 -2 25 0 6 3 1 5 -13 5 -14 0 -19 -2 -12 -5z"/>
<path d="M2558 3822 c-10 -2 -18 -8 -18 -14 0 -5 7 -8 15 -4 19 7 47 -3 39
-15 -6 -10 19 -12 29 -3 15 15 -35 43 -65 36z"/>
<path d="M2418 3798 c5 -5 16 -8 23 -6 8 3 3 7 -10 11 -17 4 -21 3 -13 -5z"/>
<path d="M2250 3780 c20 -13 50 -13 50 0 0 6 -15 10 -32 10 -25 0 -29 -3 -18
-10z"/>
<path d="M2388 3783 c7 -3 16 -2 19 1 4 3 -2 6 -13 5 -11 0 -14 -3 -6 -6z"/>
<path d="M2638 3773 c6 -2 18 -2 25 0 6 3 1 5 -13 5 -14 0 -19 -2 -12 -5z"/>
<path d="M2580 3746 c-46 -10 -51 -13 -31 -18 14 -4 29 -4 35 -1 16 10 60 10
67 0 4 -6 14 -5 25 2 17 9 17 10 2 11 -10 0 -18 5 -18 10 0 12 -8 11 -80 -4z"/>
<path d="M2688 3753 c7 -3 16 -2 19 1 4 3 -2 6 -13 5 -11 0 -14 -3 -6 -6z"/>
<path d="M2670 3706 c0 -9 30 -14 35 -6 4 6 -3 10 -14 10 -12 0 -21 -2 -21 -4z"/>
<path d="M2148 3688 c-26 -9 -40 -38 -18 -38 6 0 10 4 10 10 0 5 11 12 25 16
14 3 25 10 25 15 0 11 -7 10 -42 -3z"/>
<path d="M2620 3696 c0 -2 9 -6 20 -9 11 -3 20 -1 20 4 0 5 -9 9 -20 9 -11 0
-20 -2 -20 -4z"/>
<path d="M2767 3667 c-3 -8 -2 -20 3 -26 5 -9 8 -4 8 13 0 29 -3 32 -11 13z"/>
<path d="M2170 3657 c0 -6 -3 -8 -6 -5 -7 8 -54 -37 -54 -52 0 -7 9 -1 21 14
11 14 26 26 34 26 7 0 18 6 24 13 8 10 7 14 -4 14 -8 0 -15 -5 -15 -10z"/>
<path d="M2077 3633 c-13 -13 -17 -14 -17 -3 0 17 -13 4 -16 -16 -2 -9 3 -14
11 -10 8 3 15 0 17 -6 2 -6 9 -3 17 6 10 12 11 16 1 16 -10 0 -10 3 0 15 17
20 8 19 -13 -2z"/>
<path d="M2790 3640 c0 -6 7 -10 15 -10 8 0 15 2 15 4 0 2 -7 6 -15 10 -8 3
-15 1 -15 -4z"/>
<path d="M2875 3630 c-19 -8 -19 -9 3 -9 25 -1 30 -19 7 -27 -22 -9 -18 -23 5
-17 31 8 44 29 23 37 -15 6 -15 8 -3 16 13 9 13 10 0 9 -8 0 -24 -4 -35 -9z"/>
<path d="M2828 3613 c7 -3 16 -2 19 1 4 3 -2 6 -13 5 -11 0 -14 -3 -6 -6z"/>
<path d="M3067 3594 c-10 -14 -22 -22 -28 -19 -5 4 -9 2 -9 -3 0 -5 -14 -15
-31 -22 -17 -8 -26 -17 -21 -22 12 -12 58 6 65 26 4 9 15 16 25 16 27 0 46 24
30 38 -10 7 -18 4 -31 -14z"/>
<path d="M2007 3589 c3 -10 9 -16 14 -13 13 8 11 21 -5 27 -10 4 -12 0 -9 -14z"/>
<path d="M2328 3573 c6 -2 18 -2 25 0 6 3 1 5 -13 5 -14 0 -19 -2 -12 -5z"/>
<path d="M2388 3573 c6 -2 18 -2 25 0 6 3 1 5 -13 5 -14 0 -19 -2 -12 -5z"/>
<path d="M2438 3568 c5 -5 16 -8 23 -6 8 3 3 7 -10 11 -17 4 -21 3 -13 -5z"/>
<path d="M1860 3560 c-9 -6 -10 -10 -3 -10 6 0 15 5 18 10 8 12 4 12 -15 0z"/>
<path d="M2015 3550 c-10 -11 -14 -20 -9 -20 5 0 15 9 22 20 7 11 11 20 9 20
-2 0 -12 -9 -22 -20z"/>
<path d="M2265 3551 c-41 -25 -110 -101 -133 -148 -48 -96 -76 -345 -42 -376
10 -9 11 -9 6 0 -4 7 -7 56 -7 110 0 100 19 189 56 267 21 44 118 146 139 146
8 0 18 5 21 10 9 15 -7 12 -40 -9z"/>
<path d="M1866 3523 c-6 -14 -5 -15 5 -6 7 7 10 15 7 18 -3 3 -9 -2 -12 -12z"/>
<path d="M1945 3530 c-3 -5 -1 -10 4 -10 6 0 11 5 11 10 0 6 -2 10 -4 10 -3 0
-8 -4 -11 -10z"/>
<path d="M2908 3523 c7 -3 16 -2 19 1 4 3 -2 6 -13 5 -11 0 -14 -3 -6 -6z"/>
<path d="M1823 3504 c-12 -6 -7 -34 7 -34 4 0 10 9 13 20 5 20 2 22 -20 14z"/>
<path d="M2965 3470 c-3 -5 -2 -10 4 -10 5 0 13 5 16 10 3 6 2 10 -4 10 -5 0
-13 -4 -16 -10z"/>
<path d="M2996 3455 c-4 -13 -2 -14 14 -5 23 13 26 20 6 20 -8 0 -16 -7 -20
-15z"/>
<path d="M3060 3435 c0 -8 3 -15 6 -15 3 0 12 7 20 15 14 13 13 15 -5 15 -12
0 -21 -6 -21 -15z"/>
<path d="M3079 3403 c-13 -16 -12 -17 4 -4 9 7 17 15 17 17 0 8 -8 3 -21 -13z"/>
<path d="M3213 3374 c-15 -16 -16 -24 -4 -24 8 0 24 30 19 35 -2 2 -9 -3 -15
-11z"/>
<path d="M3259 3383 c0 -4 -2 -25 -3 -45 -1 -20 -5 -40 -9 -44 -4 -4 -7 -12
-7 -17 0 -14 43 33 59 65 7 14 11 32 8 40 -3 8 -6 5 -6 -7 -1 -11 -10 -31 -21
-45 -22 -29 -23 -27 -11 17 6 20 6 35 0 38 -5 4 -9 3 -10 -2z"/>
<path d="M1711 3344 c0 -11 3 -14 6 -6 3 7 2 16 -1 19 -3 4 -6 -2 -5 -13z"/>
<path d="M3353 3243 c-3 -10 -13 -27 -22 -38 -16 -20 -16 -20 7 -1 12 11 22
25 22 33 0 8 4 12 9 8 5 -3 12 -1 16 5 3 5 -1 10 -10 10 -8 0 -18 -8 -22 -17z"/>
<path d="M2397 3102 c-16 -17 -24 -32 -19 -36 12 -7 55 39 50 54 -2 6 -16 -2
-31 -18z"/>
<path d="M3335 3079 c-4 -6 -5 -12 -2 -15 2 -3 7 2 10 11 7 17 1 20 -8 4z"/>
<path d="M3345 3030 c-16 -17 -16 -20 -3 -15 9 4 19 13 22 21 7 19 2 18 -19
-6z"/>
<path d="M2365 3020 c-3 -5 -1 -10 4 -10 6 0 11 5 11 10 0 6 -2 10 -4 10 -3 0
-8 -4 -11 -10z"/>
<path d="M2091 3000 c0 -14 28 -72 29 -59 0 4 -7 22 -15 40 -8 19 -14 27 -14
19z"/>
<path d="M2135 2910 c10 -11 20 -20 23 -20 3 0 -3 9 -13 20 -10 11 -20 20 -23
20 -3 0 3 -9 13 -20z"/>
<path d="M955 2881 c-3 -5 -1 -12 5 -16 5 -3 10 1 10 9 0 18 -6 21 -15 7z"/>
<path d="M730 2800 c-9 -6 -10 -10 -3 -10 6 0 15 5 18 10 8 12 4 12 -15 0z"/>
<path d="M787 2793 c-4 -3 -7 -11 -7 -17 0 -6 5 -5 12 2 6 6 9 14 7 17 -3 3
-9 2 -12 -2z"/>
<path d="M742 2768 c6 -18 25 -21 25 -3 0 8 -7 15 -14 15 -8 0 -13 -5 -11 -12z"/>
<path d="M900 2758 c0 -19 2 -20 10 -8 13 19 13 30 0 30 -5 0 -10 -10 -10 -22z"/>
<path d="M720 2715 c7 -9 8 -15 2 -15 -5 0 -13 -7 -16 -16 -3 -8 -2 -13 3 -10
4 3 17 -3 28 -14 12 -10 24 -16 27 -13 3 4 -6 15 -21 25 l-28 18 50 -5 c34 -3
45 -1 35 5 -12 8 -11 10 5 10 17 0 17 2 5 10 -21 13 -33 12 -24 -2 5 -8 2 -9
-10 -5 -10 4 -15 3 -11 -3 3 -6 2 -10 -2 -10 -5 0 -14 9 -21 20 -7 11 -17 20
-23 20 -8 0 -7 -5 1 -15z"/>
<path d="M872 2700 c-7 -12 -8 -20 -2 -20 5 0 10 4 10 10 0 5 8 6 18 3 15 -6
15 -5 3 10 -16 21 -14 21 -29 -3z"/>
<path d="M835 2700 c3 -5 8 -10 11 -10 2 0 4 5 4 10 0 6 -5 10 -11 10 -5 0 -7
-4 -4 -10z"/>
<path d="M3260 2535 c0 -5 5 -17 10 -25 5 -8 10 -10 10 -5 0 6 -5 17 -10 25
-5 8 -10 11 -10 5z"/>
<path d="M3310 2480 c6 -11 15 -20 20 -20 5 0 19 -14 31 -32 13 -17 18 -28 11
-24 -7 4 -12 2 -12 -4 0 -6 7 -13 15 -16 10 -4 13 -14 9 -33 -4 -19 -3 -22 5
-11 12 18 17 13 25 -26 8 -36 -12 -52 -42 -33 -19 12 -85 92 -91 110 -9 27 27
-1 69 -53 25 -31 46 -55 48 -53 5 5 -71 106 -94 126 -33 28 -80 39 -101 24
-11 -9 -13 -14 -5 -15 7 0 10 -4 7 -10 -3 -5 -3 -15 1 -21 5 -8 8 -8 14 0 3 7
15 9 24 5 16 -6 17 -15 11 -73 -13 -116 -13 -140 2 -152 10 -9 17 -7 31 8 23
27 62 36 82 19 8 -8 26 -17 38 -21 21 -6 23 -5 13 13 -6 12 -11 30 -11 41 0
16 6 21 29 21 22 0 42 -14 87 -60 32 -33 66 -63 76 -66 17 -5 17 -6 1 -22 -9
-9 -19 -17 -22 -17 -24 -1 -67 -58 -56 -75 3 -4 -1 -11 -7 -14 -7 -3 1 -3 17
0 17 4 35 7 42 7 7 0 14 6 17 14 3 7 14 13 24 13 11 0 25 6 32 14 6 8 18 12
26 9 10 -4 12 0 8 11 -4 11 -2 15 7 11 20 -6 53 21 43 36 -4 7 -3 10 2 7 5 -3
24 16 43 41 19 25 25 39 15 31 -55 -44 -142 -69 -131 -37 2 6 13 11 24 10 22
-2 61 32 50 44 -4 3 -15 -1 -25 -10 -20 -19 -52 -23 -52 -7 0 6 -6 10 -14 10
-13 0 -31 27 -28 42 1 5 -2 7 -7 5 -5 -1 -9 1 -10 6 -1 7 -12 23 -42 56 -8 9
-14 22 -12 27 2 5 -15 8 -39 7 -29 -2 -37 0 -24 5 17 8 17 9 -6 24 -14 9 -33
25 -43 34 -10 10 -26 19 -36 21 -10 2 -35 19 -55 38 -41 40 -49 44 -34 15z
m114 -126 c9 -24 2 -26 -12 -4 -7 11 -8 20 -3 20 5 0 12 -7 15 -16z m-147 -46
c-3 -7 -5 -2 -5 12 0 14 2 19 5 13 2 -7 2 -19 0 -25z m43 -58 c0 -13 -20 -13
-40 0 -12 8 -9 10 13 10 15 0 27 -4 27 -10z"/>
<path d="M2211 2476 c-10 -12 -8 -13 8 -9 12 3 21 9 21 14 0 14 -16 11 -29 -5z"/>
<path d="M3370 2473 c0 -13 29 -38 35 -31 3 3 -4 13 -15 23 -11 10 -20 13 -20
8z"/>
<path d="M2315 2460 c-3 -5 -1 -10 4 -10 6 0 11 5 11 10 0 6 -2 10 -4 10 -3 0
-8 -4 -11 -10z"/>
<path d="M3325 2430 c10 -35 33 -70 47 -70 6 0 3 9 -6 19 -10 11 -15 24 -12
29 3 5 -4 18 -16 28 -20 19 -21 19 -13 -6z"/>
<path d="M4020 2439 c0 -5 5 -7 10 -4 6 3 10 8 10 11 0 2 -4 4 -10 4 -5 0 -10
-5 -10 -11z"/>
<path d="M3880 2399 c0 -5 5 -7 10 -4 6 3 10 8 10 11 0 2 -4 4 -10 4 -5 0 -10
-5 -10 -11z"/>
<path d="M2258 2358 c-2 -13 -13 -27 -25 -33 -12 -5 -24 -20 -28 -32 -3 -13
-10 -23 -15 -23 -6 0 -10 -10 -10 -22 l0 -22 20 22 c21 22 26 24 65 25 15 0
16 1 3 4 -19 5 -15 26 11 57 12 14 12 17 2 11 -11 -6 -13 -4 -8 8 3 9 2 19 -3
22 -5 3 -10 -5 -12 -17z m-23 -67 c-3 -6 -11 -11 -17 -11 -6 0 -6 6 2 15 14
17 26 13 15 -4z"/>
<path d="M2134 2317 c8 -12 12 -13 15 -5 2 7 9 16 14 20 6 3 -1 5 -15 5 -21
-2 -23 -5 -14 -20z"/>
<path d="M2020 2295 c-7 -9 -11 -17 -9 -20 3 -2 10 5 17 15 14 24 10 26 -8 5z"/>
<path d="M3211 2295 c1 -19 18 -51 18 -35 0 8 -4 22 -9 30 -5 8 -9 11 -9 5z"/>
<path d="M3751 2224 c0 -11 3 -14 6 -6 3 7 2 16 -1 19 -3 4 -6 -2 -5 -13z"/>
<path d="M1924 2181 c11 -11 23 -21 28 -21 14 0 -1 19 -25 31 -22 12 -22 12
-3 -10z"/>
<path d="M2207 2010 c3 -11 10 -20 17 -20 6 0 4 -4 -4 -10 -12 -8 -12 -10 4
-16 12 -5 22 -2 28 9 5 10 21 17 36 18 25 1 24 2 -8 11 -19 5 -43 14 -52 19
-25 13 -27 12 -21 -11z"/>
<path d="M2332 1970 c0 -14 2 -19 5 -12 2 6 2 18 0 25 -3 6 -5 1 -5 -13z"/>
<path d="M2395 1979 c-4 -6 -5 -12 -2 -15 2 -3 7 2 10 11 7 17 1 20 -8 4z"/>
<path d="M3487 1938 c-9 -23 -15 -43 -13 -45 2 -2 11 15 20 38 9 23 15 43 13
45 -2 2 -11 -15 -20 -38z"/>
<path d="M2270 1940 c-9 -6 -10 -10 -3 -10 6 0 15 5 18 10 8 12 4 12 -15 0z"/>
<path d="M2311 1907 c-14 -14 -14 -27 -1 -27 6 0 10 7 10 16 0 10 6 14 15 11
8 -4 16 -3 19 1 8 13 -30 12 -43 -1z"/>
<path d="M2370 1809 c0 -5 5 -7 10 -4 6 3 10 8 10 11 0 2 -4 4 -10 4 -5 0 -10
-5 -10 -11z"/>
<path d="M1822 1760 c0 -14 2 -19 5 -12 2 6 2 18 0 25 -3 6 -5 1 -5 -13z"/>
<path d="M2830 1770 c0 -5 5 -10 10 -10 6 0 10 5 10 10 0 6 -4 10 -10 10 -5 0
-10 -4 -10 -10z"/>
<path d="M3154 1726 c38 -21 66 -46 77 -67 10 -19 18 -28 19 -21 1 30 -32 70
-78 95 -72 39 -88 33 -18 -7z"/>
<path d="M2570 1746 c0 -2 7 -7 16 -10 8 -3 12 -2 9 4 -6 10 -25 14 -25 6z"/>
<path d="M3420 1616 c0 -25 -50 -56 -89 -56 -20 0 -55 9 -76 20 l-40 19 30
-24 c43 -35 125 -36 160 0 22 21 34 55 20 55 -3 0 -5 -6 -5 -14z"/>
<path d="M2330 1610 c0 -5 5 -10 10 -10 6 0 10 5 10 10 0 6 -4 10 -10 10 -5 0
-10 -4 -10 -10z"/>
<path d="M2440 1559 c0 -5 5 -7 10 -4 6 3 10 8 10 11 0 2 -4 4 -10 4 -5 0 -10
-5 -10 -11z"/>
<path d="M2540 1485 c-7 -8 -3 -11 10 -10 28 2 45 21 19 21 -11 0 -24 -5 -29
-11z"/>
<path d="M2516 1445 c-16 -12 -17 -15 -4 -15 9 0 18 7 22 15 7 18 6 18 -18 0z"/>
</g>
</svg>
